<?xml version="1.0" encoding="iso-8859-1"?>
<!-- Generator: Adobe Illustrator 16.0.0, SVG Export Plug-In . SVG Version: 6.00 Build 0)  -->
<!DOCTYPE svg PUBLIC "-//W3C//DTD SVG 1.1//EN" "http://www.w3.org/Graphics/SVG/1.1/DTD/svg11.dtd">
<svg version="1.1" id="Capa_1" xmlns="http://www.w3.org/2000/svg" xmlns:xlink="http://www.w3.org/1999/xlink" x="0px" y="0px"
	 width="612px" height="612px" viewBox="0 0 612 612" style="enable-background:new 0 0 612 612;" xml:space="preserve">
<g>
	<g>
		<g id="group-10svg">
			<path id="path-1_1_" d="M198.037,559.405c-131.983,0-182.819-65.991-195.254-86.217c-3.536-5.751-3.711-12.97-0.476-18.876
				s9.453-9.646,16.204-9.753c35.429-0.554,77.318-3.391,105.384-9.53c-26.851-16.622-62.776-47.941-60.23-95.397
				c-12.716-12.843-43.104-50.088-37.518-108.512C20.23,211.118-5.396,108.104,76.323,55.577c3.031-1.953,6.548-2.982,10.162-2.982
				c7.529,0,14.329,4.439,17.302,11.317c5.936,13.766,41.442,82.234,170.753,113.418C279.921,147.847,299,89.918,366.148,69.79
				c16.098-4.818,31.748-7.267,46.514-7.267c44.979,0,70.849,21.945,80.884,32.806c9.142,0.398,31.729-0.719,63.553-18.283
				c8.248-4.537,19.196-1.943,24.539,5.722c3.498,5.013,4.323,11.453,2.206,17.214l-8.511,23.131l13.514-3.216
				c7.305-1.739,15.203,1.205,19.584,7.286c3.546,4.896,4.518,11.259,2.613,17.01c-4.526,13.61-16.962,39.82-49.486,62.775
				l-1.913,1.186c-1.681,1.447-11.541,11.619-8.928,49.107c3.711,53.109-56.977,262.178-280.403,296.324
				C245.046,557.452,220.72,559.405,198.037,559.405z M39.223,473.179c20.692,22.888,66.992,57.063,158.814,57.063
				c21.226,0,44.056-1.846,67.875-5.489c200.549-30.649,258.924-219.87,255.737-265.451c-3.905-55.966,16.204-72.5,23.946-76.755
				c13.795-9.88,22.819-20.226,28.727-29.212l-10.968,2.613c-7.461,1.778-15.427-1.282-19.789-7.548
				c-3.526-5.032-4.352-11.483-2.234-17.253l6.402-17.428c-21.878,8.694-39.422,10.832-51.391,10.832
				c-4.721,0-8.276-0.35-10.434-0.641c-4.701-0.651-8.938-3.021-11.93-6.684c-3.497-4.304-22.645-25.54-61.318-25.54
				c-11.93,0-24.771,2.03-38.149,6.042c-60.278,18.069-70.839,76.541-72.626,94.027c-1.02,9.676-9.103,16.952-18.808,16.952
				l-3.973-0.418C149.979,180.342,100.017,117.79,82.715,86.907c-55.354,45.309-31.203,127.893-28.104,137.598
				c0.757,2.38,1.01,4.916,0.748,7.5c-5.877,53.246,25.297,83.963,31.611,89.578c4.488,3.974,6.781,9.996,6.091,16.088
				c-5.09,45.823,43.735,73.034,64.952,82.612c6.664,3.002,11.026,9.666,11.143,16.981c0.097,7.315-3.896,13.834-10.434,17.02
				C131.647,467.515,75.555,471.809,39.223,473.179z"/>
		</g>
	</g>
	<g>
	</g>
	<g>
	</g>
	<g>
	</g>
	<g>
	</g>
	<g>
	</g>
	<g>
	</g>
	<g>
	</g>
	<g>
	</g>
	<g>
	</g>
	<g>
	</g>
	<g>
	</g>
	<g>
	</g>
	<g>
	</g>
	<g>
	</g>
	<g>
	</g>
</g>
<g>
</g>
<g>
</g>
<g>
</g>
<g>
</g>
<g>
</g>
<g>
</g>
<g>
</g>
<g>
</g>
<g>
</g>
<g>
</g>
<g>
</g>
<g>
</g>
<g>
</g>
<g>
</g>
<g>
</g>
</svg>
