<svg 
 xmlns="http://www.w3.org/2000/svg"
 xmlns:xlink="http://www.w3.org/1999/xlink"
 width="118px" height="37px">
<path fill-rule="evenodd"  fill="rgb(255, 255, 255)"
 d="M117.385,30.0 L117.23,34.386 C114.840,36.106 112.685,36.987 110.568,36.987 C107.433,36.987 105.443,35.548 104.766,33.473 C102.988,35.590 100.743,36.987 97.525,36.987 C95.81,36.987 93.171,35.812 91.888,33.926 C90.84,34.957 86.83,37.52 81.223,36.987 C78.89,36.946 76.99,35.548 75.421,33.473 C73.643,35.548 71.483,36.987 68.180,36.987 C65.777,36.987 63.888,35.854 62.606,34.23 C57.531,36.373 54.412,36.987 52.344,36.987 C49.126,36.987 47.220,35.674 46.500,33.769 C44.171,35.929 41.715,36.987 38.920,36.987 C35.736,36.987 33.454,35.320 32.620,32.766 C27.821,35.310 23.439,36.797 17.762,36.987 C7.724,37.323 0.982,31.396 0.982,21.42 C0.982,8.927 9.309,0.573 21.681,0.709 C27.702,0.775 31.870,2.760 33.723,4.17 L30.371,11.648 C28.869,10.922 26.47,10.412 23.666,10.412 C17.557,10.412 14.574,14.377 14.404,19.500 C14.227,24.793 17.498,28.298 22.343,28.763 C27.132,29.222 30.553,28.120 32.646,27.199 L34.516,13.993 L44.764,13.993 L42.943,26.825 C42.774,27.968 43.494,28.899 44.552,28.899 C45.568,28.899 46.543,27.968 46.712,26.825 L48.533,13.993 L58.780,13.993 L56.790,28.264 C56.548,30.2 57.159,31.99 60.896,29.586 C60.762,28.785 60.685,27.948 60.685,27.78 C60.685,19.329 65.639,13.443 71.822,13.443 C74.278,13.443 75.929,14.502 77.157,16.196 L78.682,5.144 L88.929,5.144 L85.669,28.434 C85.462,30.47 86.188,31.254 90.171,29.170 C90.79,28.496 90.30,27.797 90.30,27.78 C90.30,19.499 94.984,13.443 101.167,13.443 C103.622,13.443 105.274,14.502 106.502,16.196 L106.799,13.993 L117.46,13.993 L115.13,28.434 C114.802,30.85 115.818,30.381 117.385,30.0 ZM74.278,21.404 C72.288,21.404 70.721,23.437 70.721,25.766 C70.721,27.544 71.652,28.942 73.219,28.942 C75.167,28.942 76.776,26.909 76.776,24.580 C76.776,22.802 75.803,21.404 74.278,21.404 ZM103.622,21.404 C101.632,21.404 100.66,23.437 100.66,25.766 C100.66,27.544 100.997,28.942 102.564,28.942 C104.512,28.942 106.121,26.909 106.121,24.580 C106.121,22.802 105.147,21.404 103.622,21.404 Z"/>
</svg>